<svg width="512" height="512" viewBox="0 0 512 512" fill="none" xmlns="http://www.w3.org/2000/svg">
<path fill-rule="evenodd" clip-rule="evenodd" d="M256 512C397.385 512 512 397.385 512 256C512 114.615 397.385 0 256 0C114.615 0 0 114.615 0 256C0 397.385 114.615 512 256 512ZM255.94 268.31L121 200.99V334.75C121.018 341.531 123.72 348.029 128.516 352.824C133.311 357.62 139.809 360.322 146.59 360.34H365.41C372.191 360.322 378.689 357.62 383.484 352.824C388.28 348.029 390.982 341.531 391 334.75V202.4L255.94 268.31ZM391 177.17L256.06 243.03L121 175.67C121.256 169.05 124.062 162.785 128.832 158.187C133.601 153.588 139.965 151.013 146.59 151H365.41C372.191 151.018 378.689 153.721 383.484 158.516C388.28 163.311 390.982 169.809 391 176.59V177.17Z" fill="#395271"/>
</svg>
