<svg width="512" height="512" viewBox="0 0 512 512" fill="none" xmlns="http://www.w3.org/2000/svg">
<path fill-rule="evenodd" clip-rule="evenodd" d="M256 512C397.385 512 512 397.385 512 256C512 114.615 397.385 0 256 0C114.615 0 0 114.615 0 256C0 397.385 114.615 512 256 512ZM231.651 159.869L343.556 254.717L362.13 231.947L250.226 137.099L231.651 159.869ZM391 208.501L304.032 90L280.697 107.747L367.664 226.247L391 208.501ZM318.992 325.083L176.327 294.778L182.303 265.729L324.967 296.255L318.992 325.083ZM318.978 332.48H173.167V361.832H318.978V332.48ZM327.134 288.127L195.04 225.668L207.212 198.675L339.374 261.299L327.134 288.127ZM327.134 288.127L327.147 288.14H327.12L327.134 288.127ZM115 421.2V302.92H144.159V391.627H347.93V302.92H377.09V421.2H115Z" fill="#395271"/>
</svg>
