<svg width="512" height="512" viewBox="0 0 512 512" fill="none" xmlns="http://www.w3.org/2000/svg">
<path fill-rule="evenodd" clip-rule="evenodd" d="M256 512C397.385 512 512 397.385 512 256C512 114.615 397.385 0 256 0C114.615 0 0 114.615 0 256C0 397.385 114.615 512 256 512ZM204.76 190.12H256V87.64H204.76C176.541 87.64 153.52 110.661 153.52 138.88C153.52 167.099 176.541 190.12 204.76 190.12ZM204.76 307.24H256V204.76H204.76C176.541 204.76 153.52 227.781 153.52 256C153.52 284.219 176.541 307.24 204.76 307.24ZM256 373.12V321.88H204.76C176.541 321.88 153.52 344.901 153.52 373.12C153.52 401.339 176.541 424.36 204.76 424.36C232.979 424.36 256 401.339 256 373.12ZM321.88 190.12C350.099 190.12 373.12 167.099 373.12 138.88C373.12 110.661 350.099 87.64 321.88 87.64H270.64V190.12H321.88ZM285.648 219.768C295.257 210.158 308.29 204.76 321.88 204.76C335.47 204.76 348.503 210.158 358.112 219.768C367.722 229.377 373.12 242.41 373.12 256C373.12 269.59 367.722 282.623 358.112 292.232C348.503 301.842 335.47 307.24 321.88 307.24C308.29 307.24 295.257 301.842 285.648 292.232C276.039 282.623 270.64 269.59 270.64 256C270.64 242.41 276.039 229.377 285.648 219.768Z" fill="#395271"/>
</svg>
