<svg width="512" height="512" viewBox="0 0 512 512" fill="none" xmlns="http://www.w3.org/2000/svg">
<path fill-rule="evenodd" clip-rule="evenodd" d="M512 256.001C512 114.624 397.392 0 255.999 0C114.608 0 0 114.626 0 256.001C0 397.376 114.606 512 255.999 512C397.392 512 512 397.378 512 256.001ZM192.192 351.744H144.256V191.967H192.192V351.744ZM272.161 213.681C286.928 194.929 307.744 186.433 331.008 186.433C354.289 186.433 384.112 198.048 384.114 261.041V351.73H336.177V264.609C336.177 246.737 330.993 228.865 309.969 228.865C288.946 228.865 272.161 246.737 272.161 265.057V351.745H224.049V191.442H272.161V213.681ZM192.001 151.999C192.001 165.248 181.248 176 168 176C154.752 176 143.999 165.249 143.999 152.001C143.999 138.753 154.752 128 168 128C181.248 128 192.001 138.751 192.001 151.999Z" fill="#395271"/>
</svg>
