<svg width="175" height="261" viewBox="0 0 175 261" fill="none" xmlns="http://www.w3.org/2000/svg">
    <path d="M58.6366 23.6297L17.6785 0V117.492L58.6366 92.6371V23.6297Z" fill="#395271" />
    <path
        d="M58.6366 191.4V148.079L79.5095 136.002L95.0438 127.075L131.582 105.94L137.709 102.395L131.582 98.8508L97.9756 79.4657L58.6366 102.176L55.2672 104.102L17.6785 125.806L-7.62939e-06 136.002H17.6785V215.511L45.7278 231.746L87.4298 208.029L58.6366 191.4Z"
        fill="#395271" />
    <path
        d="M145.979 107.165L97.2755 134.995L110.534 136.002L131.582 148.167V192.801L96.3128 213.148L58.6366 234.897L54.9171 237.041L48.1783 240.935H61.6997L95.919 260.714L130.138 240.935L131.582 240.104L137.315 236.822L174.378 215.424V123.574L145.979 107.165Z"
        fill="#395271" />
</svg>